<?xml version="1.0" encoding="utf-8"?>
<!-- Generator: Adobe Illustrator 27.8.1, SVG Export Plug-In . SVG Version: 6.00 Build 0)  -->
<svg version="1.1" id="Calque_1" xmlns="http://www.w3.org/2000/svg" xmlns:xlink="http://www.w3.org/1999/xlink" x="0px" y="0px"
	 viewBox="0 0 300 300" style="enable-background:new 0 0 300 300;" xml:space="preserve">
<style type="text/css">
	.st0{fill:#8531DA;}
</style>
<path class="st0" d="M74.1,75.2l3,183.9l70.2-33l1.4,48.7L55,289l-29-201.5L74.1,75.2L74.1,75.2z"/>
<path class="st0" d="M272.2,255.1c1.2,1.3,2.2,2.4,3,3.3s1.4,2,1.9,3.1c0.5,1.1,0.5,1.8,0.3,2.2c-0.5,0.6-2.6,1.9-6.1,3.9
	c-3.6,2-7.6,4.1-12.1,6.3c-4.5,2.2-8.8,4.2-12.9,5.9c-4.1,1.7-6.8,2.4-8.1,2c-0.9-0.3-2.8-2.5-5.9-6.5c-3.1-4-6.5-8.8-10.3-14.2
	c-3.8-5.4-7.6-11.1-11.4-17s-6.9-10.8-9.4-14.6c-4.4,12.1-8.1,22.2-11.1,30.4c-3,8.1-4.8,12.7-5.3,13.8c-2.6,3.3-5.5,5.2-8.7,5.5
	c-3.2,0.3-6.2-0.5-9.2-2.6c-0.8-0.5-0.9-3.6-0.2-9.1c0.7-5.5,1.9-12.7,3.8-21.5c1.8-8.8,3.9-18.8,6.3-29.9c2.4-11.1,5-22.4,7.7-33.8
	c6.4-26.8,13.8-57,22.2-90.8c9-2,16.8-3.8,23.5-5.3c5.7-1.2,10.9-2.2,15.3-3c4.5-0.8,6.4-0.6,5.9,0.4c-0.5,0.6-1.9,4.3-4.2,11.2
	c-2.3,6.8-5.3,15.6-9,26.2c-3.7,10.6-7.7,22.5-12.1,35.5s-8.8,25.9-13.3,38.7c3.5-1.2,7.9-2.8,13.3-4.7c5.4-1.9,10.7-3.6,15.9-5.1
	c5.2-1.5,9.9-2.6,14-3.4c4.1-0.8,6.9-0.9,8.5-0.3c1.9,0.9,4,3.4,6.1,7.6c2.1,4.2,3.9,8.6,5.4,13.4c1.4,4.8,2.2,9.2,2.5,13.4
	c0.2,4.2-0.4,6.6-1.8,7.4c-1.7,0.9-4.4,2.2-8.3,3.7c-3.9,1.5-7.8,2.9-11.9,4.2c-4.1,1.3-7.8,2.2-11.1,2.7c-3.3,0.6-5.2,0.2-5.8-0.9
	c-0.6-1.2-0.9-3.3-1.2-6.4c-0.2-3.1-0.5-6.2-0.7-9.4c-0.2-3.2-0.6-5.9-1-8.2c-0.4-2.3-1.1-3.4-2-3.2c-1.2,0.3-3.1,0.8-5.7,1.4
	c-2.6,0.6-5.4,1.4-8.1,2.2c-3.3,1-6.7,2.1-10.5,3.3c7.2,8.6,13.9,16.2,20.2,22.7c5.2,5.7,10.4,11,15.6,15.8c5.1,4.8,8.8,7.3,11,7.6
	c2,0.4,3.9,0.4,5.7-0.1c1.9-0.5,3.5-1,4.9-1.5C269.3,256.6,270.8,255.9,272.2,255.1L272.2,255.1z"/>
<path class="st0" d="M234.1,11c0.7,0,0.9,2.2,0.6,6.6s-0.8,9.2-1.5,14.5c-0.7,5.3-1.6,10.3-2.7,15.2c-1.1,4.8-1.9,7.7-2.6,8.6
	c-0.9,1.2-4.4,2.3-10.5,3.4c-6.1,1.1-12.9,2.5-20.4,4.3c-7.5,1.8-14.8,4-21.8,6.6c-7,2.6-12.1,5.8-15.1,9.7
	c-1.4,1.8-2.8,5.1-4.2,9.8c-1.4,4.7-2.8,10.3-4.3,16.7c3.9-0.9,8.1-1.8,12.6-2.7c4.5-0.9,8.7-1.7,12.6-2.3c3.9-0.7,7.2-1.1,9.8-1.3
	c2.6-0.2,4.1-0.1,4.3,0.4c0.2,0.7,0.3,1.9,0.3,3.6s-0.2,3.6-0.6,5.5c-0.4,1.9-0.9,3.7-1.6,5.3c-0.7,1.6-1.5,2.8-2.4,3.4
	c-1.1,0.4-5.4,1.1-12.6,1.8c-7.2,0.8-15.7,1.8-25.4,3.1c-1.7,9.9-3.2,20-4.5,30.3c-1.4,10.3-2.5,19.9-3.5,28.6
	c-1.2,10.1-2.3,20-3.3,29.6c-2.3,2.3-4.6,4.2-6.9,5.8c-1.9,1.4-4,2.6-6.4,3.7c-2.4,1.1-4.7,1.7-6.7,1.7c-1.4,0-2.4-2.8-3-8.5
	c-0.7-5.6-1-12.9-1-21.9c-0.1-9,0-19,0.2-30.2c0.2-11.1,0.6-22.2,1.1-33.3c-3,0.9-5.8,1.7-8.5,2.4c-2.7,0.7-5.2,1.6-7.8,2.7
	c-0.2-1.6-0.1-3.1,0.4-4.5c0.2-1.1,0.7-2.4,1.4-3.8c0.7-1.4,1.7-2.4,3.1-3.1c0.9-0.4,2.5-1.1,4.7-1.9c2.2-0.8,4.5-1.7,7.1-2.9
	c0.6-13.3,1.2-25,2-35.2c0.8-10.1,1.4-16.4,1.9-19c0.5-2.3,2.6-4.8,6.3-7.4c3.7-2.6,8.3-5.2,13.7-7.8c5.4-2.6,11.3-5.1,17.6-7.5
	c6.3-2.4,12.4-4.6,18.3-6.6c5.9-2,11.1-3.7,15.6-5c4.5-1.4,7.5-2.2,9.2-2.7l-31.4,6.3v-1.4c0-1.6,0.1-3,0.4-4.1
	c0.2-0.7,1.9-1.5,5-2.5c3.1-1,7-2.2,11.8-3.5s9.8-2.6,15.2-3.9c5.4-1.2,10.5-2.4,15.4-3.5c4.8-1.1,8.9-1.9,12.3-2.5
	C231.4,11.2,233.4,11,234.1,11L234.1,11z"/>
</svg>
