<?xml version="1.0" encoding="UTF-8"?>
<svg xmlns="http://www.w3.org/2000/svg" viewBox="0 0 300 300" fill="#fff">

  <path d="m74.08,75.25l2.98,183.88,70.23-33.01,1.4,48.75-93.73,14.17L25.93,87.53l48.15-12.29Z" />
  <path
    d="m272.22,255.14c1.22,1.25,2.22,2.36,3.02,3.35s1.42,2,1.87,3.06c.45,1.06.54,1.79.27,2.22-.52.62-2.56,1.93-6.14,3.91-3.58,1.99-7.62,4.1-12.12,6.33-4.5,2.23-8.81,4.19-12.92,5.91-4.11,1.71-6.82,2.38-8.13,2.02-.87-.32-2.83-2.49-5.9-6.51-3.07-4.03-6.51-8.77-10.32-14.22-3.82-5.45-7.61-11.13-11.38-17.03-3.77-5.9-6.92-10.78-9.44-14.64-4.41,12.13-8.1,22.25-11.08,30.37-2.98,8.12-4.75,12.71-5.31,13.78-2.59,3.32-5.48,5.16-8.66,5.51-3.19.34-6.24-.54-9.17-2.64-.84-.54-.92-3.58-.23-9.13.69-5.55,1.94-12.73,3.76-21.53,1.81-8.8,3.91-18.75,6.31-29.86,2.39-11.1,4.96-22.35,7.72-33.76,6.38-26.76,13.79-57.01,22.25-90.75,8.97-1.99,16.8-3.76,23.48-5.31,5.74-1.2,10.85-2.19,15.31-2.96,4.46-.77,6.41-.62,5.86.44-.52.62-1.92,4.35-4.2,11.2-2.29,6.84-5.28,15.58-8.96,26.21-3.69,10.63-7.73,22.46-12.12,35.49-4.39,13.03-8.82,25.95-13.3,38.74,3.5-1.21,7.93-2.77,13.3-4.69,5.37-1.91,10.66-3.61,15.87-5.09,5.21-1.48,9.88-2.62,14.01-3.43,4.13-.8,6.95-.91,8.46-.3,1.93.88,3.97,3.4,6.13,7.55,2.15,4.16,3.93,8.62,5.35,13.37,1.41,4.76,2.24,9.23,2.48,13.41.24,4.19-.35,6.65-1.78,7.4-1.67.95-4.44,2.18-8.31,3.69-3.87,1.51-7.84,2.89-11.9,4.16-4.07,1.26-7.76,2.18-11.07,2.73-3.32.56-5.25.24-5.8-.94-.55-1.18-.95-3.3-1.19-6.36-.25-3.06-.49-6.17-.71-9.35-.23-3.17-.57-5.9-1-8.2-.44-2.29-1.11-3.37-2.02-3.24-1.16.33-3.07.81-5.71,1.43-2.65.62-5.37,1.35-8.15,2.19-3.26,1.01-6.74,2.11-10.46,3.3,7.2,8.62,13.94,16.17,20.23,22.67,5.25,5.72,10.43,10.98,15.56,15.78,5.12,4.8,8.79,7.32,11.02,7.55,1.98.43,3.89.4,5.74-.08,1.85-.48,3.47-.99,4.88-1.52,1.65-.73,3.19-1.47,4.61-2.22Z" />
  <path
    d="m234.13,10.97c.69,0,.9,2.19.64,6.56-.26,4.37-.76,9.19-1.49,14.47-.73,5.28-1.63,10.33-2.7,15.15-1.07,4.82-1.95,7.69-2.65,8.6-.93,1.15-4.45,2.27-10.54,3.37-6.1,1.11-12.9,2.55-20.37,4.33-7.49,1.79-14.75,3.97-21.77,6.56-7.03,2.59-12.06,5.83-15.07,9.71-1.39,1.83-2.8,5.09-4.21,9.79-1.42,4.7-2.84,10.27-4.26,16.69,3.91-.89,8.12-1.78,12.6-2.66,4.49-.88,8.69-1.66,12.6-2.32,3.91-.66,7.19-1.09,9.83-1.31,2.64-.21,4.08-.08,4.31.38.22.69.33,1.9.32,3.62s-.2,3.56-.56,5.51c-.36,1.95-.89,3.73-1.59,5.33-.7,1.61-1.52,2.75-2.44,3.43-1.15.45-5.35,1.05-12.6,1.8-7.24.75-15.7,1.78-25.36,3.08-1.68,9.87-3.2,19.97-4.54,30.3-1.35,10.33-2.51,19.86-3.49,28.59-1.23,10.1-2.33,19.98-3.32,29.62-2.32,2.28-4.63,4.22-6.94,5.81-1.85,1.37-3.99,2.61-6.41,3.74-2.42,1.13-4.67,1.69-6.74,1.67-1.37-.01-2.39-2.84-3.04-8.47-.65-5.64-1-12.94-1.04-21.9-.05-8.96.03-19.02.23-30.16.2-11.14.57-22.23,1.11-33.26-2.99.9-5.82,1.68-8.46,2.35-2.65.67-5.24,1.57-7.78,2.7-.21-1.61-.09-3.1.38-4.48.24-1.15.71-2.41,1.41-3.78.7-1.37,1.74-2.4,3.12-3.08.92-.45,2.48-1.07,4.67-1.86,2.19-.79,4.54-1.74,7.09-2.88.56-13.32,1.22-25.04,1.99-35.15.76-10.1,1.38-16.42,1.86-18.95.48-2.29,2.57-4.75,6.26-7.36,3.7-2.61,8.26-5.22,13.68-7.83,5.42-2.6,11.29-5.08,17.64-7.45,6.34-2.36,12.44-4.56,18.32-6.58,5.88-2.02,11.06-3.71,15.55-5.05,4.49-1.35,7.54-2.24,9.16-2.69l-31.42,6.31v-1.38c.02-1.6.15-2.98.38-4.13.23-.69,1.91-1.54,5.02-2.55,3.11-1.01,7.03-2.19,11.75-3.53,4.72-1.34,9.79-2.63,15.2-3.85,5.41-1.22,10.53-2.39,15.37-3.5,4.83-1.11,8.92-1.94,12.26-2.49,3.33-.55,5.35-.82,6.04-.82Z" />
</svg>