<svg width="160" height="32" viewBox="0 0 160 32" fill="none" xmlns="http://www.w3.org/2000/svg">
<g clip-path="url(#clip0_11_85)">
<path d="M11.0152 25.4931C11.3089 27.6234 14.858 29 20.0571 29C25.8184 29 30 27.0819 30 24.4393C30 22.4874 27.2089 20.6514 22.7418 20.0013C22.6299 19.985 22.4187 20.1314 22.3032 20.1314C22.1061 20.1314 21.9105 20.1548 21.7364 20.2001C21.6692 20.2177 21.9221 20.0762 21.925 20.1314C21.9502 20.6152 21.9502 20.4118 21.9502 20.4118C21.7364 20.4727 21 20 22 21C25.586 21.5266 27.835 22.9222 27.835 24.4393C27.835 26.5217 24.5642 28.0332 20.0576 28.0332C15.9402 28.0332 13.1684 26.9026 13.1602 25.22C13.1545 24.0875 14.8061 23.0911 17.176 22.797C18.8404 22.5905 20.4678 22.7131 21.76 23.1425C22.9049 23.5232 23.6165 24.0942 23.6165 24.6328C23.6165 25.0732 22.5573 26.1799 20.0571 26.1799C19.6408 26.1799 17.3793 26.0015 17.3793 25.2128C17.3793 25.0712 17.6919 24.7688 18.4019 24.6276C18.6633 24.7401 19.0201 24.8098 19.4149 24.8098C20.2147 24.8098 20.8637 24.525 20.8637 24.1734C20.8637 23.8218 20.2152 23.5372 19.4154 23.5372C19.2064 23.5372 19.0083 23.5575 18.8291 23.5927C16.6913 23.6664 15.1789 24.3247 15.1789 25.213C15.1789 26.4234 17.6596 27.1469 20.0576 27.1469C23.8157 27.1469 25.8174 25.6869 25.8174 24.633C25.8174 23.9077 25.0781 23.1739 23.7879 22.6195C22.4131 22.0287 20.5459 21.7129 18.5616 21.733C16.4931 21.7529 14.5736 22.136 13.1576 22.8117C11.6595 23.5257 10.8792 24.5031 11.0152 25.4931Z" fill="#8531DA"/>
<path d="M2.38841 1.06919C10.1181 1.76992 15.5916 4.05923 18.6568 7.87234C21.3069 11.1692 21.1846 14.4317 21.1344 15.0511C21.134 15.0559 21.1337 15.0587 21.1333 15.0631C22.3699 17.0625 22.6987 18.6817 22.877 19.5914C22.9064 19.7423 22.9321 19.8747 22.9583 19.9881C23.0551 20.4027 22.8002 20.8193 22.3879 20.9167C22.3056 20.9366 22.2227 20.9411 22.1428 20.9338C21.8231 20.9049 21.5429 20.6742 21.4656 20.3429C21.4357 20.2142 21.4065 20.0627 21.3723 19.8907C21.1986 19.0048 20.9151 17.5707 19.8106 15.7995L19.8097 15.7984L19.8117 15.7986L21.1281 15.0546C21.0893 14.992 21.0515 14.9298 21.0108 14.8665C20.8701 14.6468 20.7263 14.4255 20.5623 14.1974C19.4688 12.6771 17.8352 10.9795 15.3679 9.22221C15.3262 9.19244 15.2822 9.16269 15.2397 9.13293C15.1445 9.06631 15.0499 8.99906 14.9531 8.93246C14.8484 8.8603 14.7455 8.78863 14.6379 8.71629C14.486 8.61422 14.3285 8.5123 14.1705 8.40967C14.0672 8.34261 13.9669 8.27532 13.861 8.20814C13.681 8.09422 13.4929 7.97988 13.3057 7.86531C13.2145 7.80961 13.1271 7.75423 13.0342 7.69848C12.7499 7.52812 12.4585 7.35818 12.1573 7.18732C11.7898 6.97843 11.3209 7.1094 11.1133 7.48097C10.9051 7.85198 11.0349 8.32201 11.404 8.53104C11.9717 8.85275 12.503 9.17181 13.0061 9.4892C13.0117 9.49269 13.0167 9.49626 13.0222 9.49974C13.0608 9.52408 13.0967 9.54817 13.1349 9.57249C14.6355 10.5281 15.8555 11.4619 16.847 12.3558C16.8707 12.3772 16.894 12.3984 16.9174 12.4197C18.25 13.6319 19.1695 14.7718 19.8097 15.7984C17.9348 15.5298 10.9492 14.2431 5.99658 9.46596C5.73797 9.21634 5.68569 8.81858 5.87178 8.50961L6.45479 7.54076L4.53006 7.42074C4.30155 7.41087 4.08801 7.2885 3.95377 7.09921C2.86885 5.57044 2.07041 3.8679 1.5788 2.03867C1.51353 1.79624 1.57042 1.53546 1.73213 1.34253C1.89341 1.14852 2.13847 1.04653 2.38841 1.06919Z" fill="#8D1DE5"/>
</g>
<path d="M40 25.9324V6.06757H45.1504V21.3635H52.5V25.9324H40Z" fill="black"/>
<path d="M64.6841 5.5C71.1077 5.5 75.5059 10.3243 75.5059 16C75.5059 21.6757 71.1077 26.5 64.6841 26.5C58.2316 26.5 53.8335 21.6757 53.8335 16C53.8335 10.3243 58.2316 5.5 64.6841 5.5ZM64.6841 21.7608C67.8959 21.7608 70.2107 19.3203 70.2107 16C70.2107 12.6514 67.8959 10.2392 64.6841 10.2392C61.4434 10.2392 59.1286 12.6797 59.1286 16C59.1286 19.3486 61.4434 21.7608 64.6841 21.7608Z" fill="black"/>
<path d="M90.8706 18.4405V6.06757H96.0211V17.9581C96.0211 23.2365 92.8961 26.5 87.5431 26.5C82.219 26.5 79.094 23.2365 79.094 17.9581V6.06757H84.2445V18.4405C84.2445 20.4838 85.4308 21.7608 87.572 21.7608C89.6843 21.7608 90.8706 20.4838 90.8706 18.4405Z" fill="black"/>
<path d="M101.063 25.9324V6.06757H113.563V10.2392H106.214V13.7297H112.406V17.9014H106.214V25.9324H101.063Z" fill="black"/>
<path d="M126.313 5.5C132.736 5.5 137.134 10.3243 137.134 16C137.134 21.6757 132.736 26.5 126.313 26.5C119.86 26.5 115.462 21.6757 115.462 16C115.462 10.3243 119.86 5.5 126.313 5.5ZM126.313 21.7608C129.524 21.7608 131.839 19.3203 131.839 16C131.839 12.6514 129.524 10.2392 126.313 10.2392C123.072 10.2392 120.757 12.6797 120.757 16C120.757 19.3486 123.072 21.7608 126.313 21.7608Z" fill="black"/>
<path d="M141.019 25.9324V6.06757H146.169V13.673L153.605 6.06757H160L151.58 14.5811L159.797 25.9324H153.547L148.05 18.1568L146.169 20.0581V25.9324H141.019Z" fill="black"/>
<defs>
<clipPath id="clip0_11_85">
<rect width="32" height="32" fill="white" transform="matrix(-1 0 0 1 32 0)"/>
</clipPath>
</defs>
</svg>
