<?xml version="1.0" encoding="UTF-8"?>
<svg xmlns="http://www.w3.org/2000/svg" viewBox="0 0 624.05 377.23" fill="#ffffff">

  <path d="m70.31,63.76l-3.33,266.69,103.18-44.93v70.73l-136.47,16.64L0,79.57l70.31-15.81Z" />
  <path d="m162.13,189.5c.83.28,1.94,1.67,3.33,4.16,1.38,2.5,2.7,5.34,3.95,8.53,1.25,3.19,2.29,6.31,3.12,9.36.83,3.05,1.1,5.27.83,6.66,0,1.39-.77,5.14-2.29,11.23-1.53,6.1-3.33,12.62-5.41,19.55-2.08,6.94-4.23,13.04-6.45,18.31-2.22,5.27-4.3,7.77-6.24,7.49-1.94-.27-5.82-.83-11.65-1.66s-12-1.8-18.51-2.91c-6.52-1.1-12.48-2.42-17.89-3.95-5.41-1.52-8.53-3.12-9.36-4.78-.56-.83-1.11-2.71-1.66-5.62-.56-2.91-1.25-6.51-2.08-10.82-.83-4.3-1.66-9.08-2.5-14.35-.83-5.27-1.66-10.54-2.5-15.81-1.94-12.48-3.89-26.35-5.82-41.61h.83c1.38,0,2.63-.14,3.74-.42-.83-2.5-1.11-4.79-.83-6.87.27-2.08,1.52-3.26,3.74-3.54,7.49-.55,14.7-.69,21.64-.42,5.82.28,11.65.83,17.47,1.66s10.4,2.36,13.73,4.58c3.05,2.22,5.55,6.03,7.49,11.44,1.94,5.41,3.33,10.89,4.16,16.43,1.1,6.66,1.8,13.73,2.08,21.22.55-5.27,1.25-9.99,2.08-14.15.55-3.6,1.31-6.87,2.29-9.78.97-2.91,1.87-4.23,2.7-3.95Zm-28.71,54.09c2.22.56,4.92.28,8.11-.83,3.19-1.11,4.78-3.19,4.78-6.24,0-1.66-.35-5.2-1.04-10.61-.7-5.41-1.53-11.09-2.5-17.06-.98-5.96-2.08-11.23-3.33-15.81-1.25-4.58-2.29-6.87-3.12-6.87h-9.57c.83,4.99,1.52,10.75,2.08,17.27.55,6.52,1.04,12.69,1.46,18.51.42,5.82.83,10.82,1.25,14.98.42,4.16,1.04,6.38,1.87,6.66Z" />
  <path d="m200.52,241.22c4.99-1.1,9.71-2.08,14.15-2.91,3.88-.55,7.7-1.04,11.44-1.46,3.74-.42,6.45-.34,8.11.21,1.1.28,1.46,2.91,1.04,7.91s-1.32,11.1-2.7,18.31c-1.39,7.22-3.06,14.91-4.99,23.09-1.94,8.18-3.61,15.81-4.99,22.88-1.39,7.07-2.43,12.97-3.12,17.68-.7,4.72-.62,7.07.21,7.07h5.82c2.77,0,5.75-.21,8.95-.62,3.19-.42,6.45-1.25,9.78-2.5s6.24-3.12,8.74-5.62c1.66-1.66,2.84-5.75,3.54-12.27.69-6.51,1.11-14.15,1.25-22.88.14-8.74.21-17.96.21-27.67s.14-18.79.42-27.25c.27-8.46.9-15.46,1.87-21.01.97-5.55,2.56-8.59,4.78-9.15,3.05-.83,7.28-2.01,12.69-3.54,5.41-1.52,10.75-2.77,16.02-3.74,5.27-.97,9.84-1.46,13.73-1.46s5.96,1.11,6.24,3.33c.27,2.22-.21,7.35-1.46,15.39-1.25,8.05-2.85,16.51-4.79,25.38-1.94,8.88-4.02,16.92-6.24,24.13-2.22,7.22-4.02,11.23-5.41,12.07-1.39.83-2.57,1.39-3.54,1.67-.98.28-1.87.56-2.71.83-1.11.28-1.94.42-2.5.42-.83,14.42-1.81,27.32-2.91,38.69-.56,4.99-1.04,9.85-1.46,14.56-.42,4.72-.83,8.95-1.25,12.69-.42,3.75-.83,6.8-1.25,9.15-.42,2.36-.77,3.68-1.04,3.95-.83.56-2.64,1.25-5.41,2.08-2.78.83-5.76,1.53-8.95,2.08-3.19.56-5.97.83-8.32.83s-3.54-.69-3.54-2.08v-4.79c0-1.8.14-3.54.42-5.2.27-1.94.55-3.88.83-5.83-8.88,4.99-17.34,9.02-25.38,12.07-6.94,2.78-13.8,4.79-20.59,6.03-6.8,1.25-12,.35-15.6-2.7-1.66-1.38-2.85-4.16-3.54-8.32-.7-4.16-1.04-9.15-1.04-14.98s.34-12.27,1.04-19.35c.69-7.07,1.46-14.21,2.29-21.43,2.22-16.64,5.27-35.22,9.15-55.75Z" />
  <path d="m491.85,0c.98,0,1.31,3.12.98,9.34-.33,6.23-.98,13.11-1.97,20.65-.98,7.54-2.21,14.75-3.69,21.63-1.47,6.88-2.7,10.98-3.69,12.29-1.31,1.64-6.31,3.28-15,4.92-8.69,1.64-18.36,3.77-29.01,6.39-10.65,2.63-20.98,5.82-30.97,9.59-10,3.77-17.13,8.44-21.39,14.01-1.97,2.63-3.94,7.3-5.9,14.01-1.97,6.72-3.93,14.67-5.9,23.85,5.57-1.31,11.55-2.62,17.94-3.93,6.39-1.31,12.37-2.46,17.95-3.44,5.57-.98,10.24-1.64,14.01-1.97,3.76-.32,5.81-.16,6.15.49.32.98.49,2.7.49,5.16s-.25,5.09-.74,7.87c-.49,2.79-1.23,5.33-2.21,7.62-.98,2.3-2.13,3.93-3.44,4.92-1.64.66-7.62,1.56-17.94,2.7-10.32,1.15-22.37,2.7-36.14,4.67-2.3,14.1-4.35,82.87-6.15,97.62-1.8,14.75-3.37,28.35-4.67,40.81-1.65,14.42-3.12,28.52-4.43,42.28-3.28,3.27-6.56,6.06-9.83,8.36-2.63,1.97-5.65,3.76-9.1,5.41-3.44,1.64-6.64,2.46-9.59,2.46-1.97,0-3.44-4.02-4.42-12.05-.98-8.04-1.56-18.44-1.72-31.22-.17-12.78-.17-27.12,0-43.02.16-15.89.57-86.07,1.23-101.8-4.26,1.31-8.28,2.46-12.05,3.44-3.77.98-7.45,2.3-11.06,3.93-.32-2.29-.16-4.43.49-6.39.33-1.64.98-3.44,1.97-5.41s2.46-3.44,4.42-4.43c1.31-.65,3.52-1.55,6.64-2.7,3.11-1.14,6.47-2.54,10.08-4.18.65-19.01,1.47-35.72,2.46-50.15.98-14.42,1.8-23.43,2.46-27.04.65-3.27,3.6-6.8,8.85-10.57,5.24-3.76,11.72-7.54,19.42-11.31,7.7-3.76,16.05-7.37,25.07-10.82,9.01-3.44,17.7-6.64,26.06-9.59,8.36-2.95,15.73-5.41,22.12-7.38,6.39-1.97,10.73-3.27,13.03-3.93l-44.74,9.34v-1.97c0-2.29.16-4.26.49-5.9.32-.98,2.7-2.21,7.13-3.69,4.42-1.47,9.99-3.2,16.72-5.16,6.71-1.97,13.93-3.85,21.63-5.65,7.7-1.8,15-3.52,21.88-5.16,6.88-1.64,12.7-2.87,17.45-3.69,4.75-.81,7.62-1.23,8.6-1.23Z" />
  <path d="m462.32,278.5c.83.28,1.94,1.67,3.33,4.16,1.38,2.5,2.71,5.34,3.95,8.53,1.25,3.19,2.29,6.31,3.12,9.36.83,3.05,1.11,5.27.83,6.66,0,1.39-.77,5.14-2.29,11.23-1.53,6.1-3.33,12.62-5.41,19.55-2.08,6.94-4.23,13.04-6.45,18.31-2.22,5.27-4.3,7.77-6.24,7.49-1.94-.27-5.83-.83-11.65-1.66-5.83-.83-12-1.8-18.51-2.91-6.52-1.1-12.48-2.42-17.89-3.95-5.41-1.52-8.53-3.12-9.36-4.78-.56-.83-1.11-2.71-1.66-5.62-.56-2.91-1.25-6.51-2.08-10.82-.83-4.3-1.66-9.08-2.5-14.35-.83-5.27-1.66-10.54-2.5-15.81-1.94-12.48-3.89-26.35-5.83-41.61h.83c1.38,0,2.63-.14,3.74-.42-.83-2.5-1.11-4.79-.83-6.87.27-2.08,1.52-3.26,3.75-3.54,7.49-.55,14.7-.69,21.63-.42,5.82.28,11.65.83,17.47,1.66,5.82.83,10.4,2.36,13.73,4.58,3.05,2.22,5.54,6.03,7.49,11.44,1.94,5.41,3.33,10.89,4.16,16.43,1.11,6.66,1.8,13.73,2.08,21.22.55-5.27,1.25-9.99,2.08-14.15.55-3.6,1.31-6.87,2.29-9.78.97-2.91,1.87-4.23,2.7-3.95Zm-28.71,54.09c2.22.56,4.92.28,8.11-.83,3.19-1.11,4.78-3.19,4.78-6.24,0-1.66-.35-5.2-1.04-10.61-.7-5.41-1.53-11.09-2.5-17.06-.97-5.96-2.08-11.23-3.33-15.81-1.25-4.58-2.29-6.87-3.12-6.87h-9.57c.83,4.99,1.52,10.75,2.08,17.27.55,6.52,1.04,12.69,1.46,18.51.42,5.82.83,10.82,1.25,14.98.42,4.16,1.04,6.38,1.87,6.66Z" />
  <path d="m616.44,334.87c1.66,1.38,3.05,2.63,4.16,3.74s2.01,2.29,2.7,3.54c.69,1.25.9,2.15.62,2.7-.56.83-2.91,2.7-7.07,5.62-4.16,2.91-8.88,6.03-14.15,9.36-5.27,3.33-10.34,6.31-15.19,8.95-4.86,2.63-8.11,3.81-9.78,3.54-1.11-.28-3.82-2.71-8.11-7.28-4.3-4.58-9.15-9.99-14.56-16.23-5.41-6.24-10.82-12.76-16.23-19.55-5.41-6.79-9.92-12.41-13.52-16.85-3.89,15.54-7.14,28.5-9.78,38.9-2.64,10.4-4.23,16.29-4.79,17.68-2.78,4.43-6.1,7.07-9.99,7.91-3.89.83-7.77.14-11.65-2.08-1.11-.56-1.59-4.3-1.46-11.23.14-6.94.76-15.95,1.87-27.04,1.11-11.09,2.42-23.64,3.95-37.65,1.52-14,3.26-28.22,5.2-42.65,4.43-33.84,9.71-72.11,15.81-114.83,10.82-3.6,20.24-6.79,28.29-9.57,6.93-2.22,13.11-4.09,18.51-5.62,5.41-1.52,7.83-1.59,7.28-.21-.56.83-1.81,5.62-3.74,14.35-1.94,8.74-4.51,19.91-7.7,33.49-3.19,13.59-6.66,28.71-10.4,45.35-3.75,16.64-7.56,33.15-11.44,49.51,4.16-1.94,9.43-4.43,15.81-7.49,6.38-3.05,12.69-5.83,18.93-8.32s11.86-4.5,16.85-6.03c4.99-1.52,8.46-2.01,10.4-1.46,2.5.83,5.34,3.68,8.53,8.53,3.18,4.86,5.96,10.13,8.32,15.81,2.35,5.69,3.95,11.1,4.79,16.23.83,5.14.42,8.26-1.25,9.36-1.94,1.39-5.2,3.26-9.78,5.62-4.58,2.36-9.3,4.58-14.15,6.66-4.86,2.08-9.3,3.68-13.31,4.79-4.02,1.11-6.45.97-7.28-.42-.83-1.38-1.6-3.95-2.29-7.7-.7-3.74-1.39-7.55-2.08-11.44-.7-3.88-1.46-7.21-2.29-9.99-.83-2.77-1.81-4.02-2.91-3.74-1.39.56-3.68,1.39-6.86,2.5-3.19,1.11-6.45,2.36-9.78,3.74-3.89,1.66-8.05,3.47-12.48,5.41,9.99,9.71,19.27,18.17,27.88,25.38,7.21,6.38,14.28,12.21,21.22,17.47,6.93,5.27,11.79,7.91,14.56,7.91,2.5.27,4.85,0,7.07-.83,2.22-.83,4.16-1.67,5.82-2.5,1.94-1.11,3.74-2.22,5.41-3.33Z" />
</svg>