<?xml version="1.0" encoding="utf-8"?>
<!-- Generator: Adobe Illustrator 25.4.1, SVG Export Plug-In . SVG Version: 6.00 Build 0)  -->
<svg version="1.1" id="Layer_1" xmlns="http://www.w3.org/2000/svg" xmlns:xlink="http://www.w3.org/1999/xlink" x="0px" y="0px"
	 viewBox="0 0 1200 1200" style="enable-background:new 0 0 1200 1200;" xml:space="preserve">
<style type="text/css">
	.st0{fill:#FFFFFF;}
</style>
<g>
	<path class="st0" d="M682.5,602.4c-2.4-3.7-3.9-8.1-7.2-11.1c-11.6-10.7-24.1-20.8-35.8-31.4c-11.1-10.1-22-20.4-32.3-31.1
		c-5.6-5.8-5-6.6,1.4-11.8c20.7-16.9,35.3-37.5,47.6-59.5c12.4-22.3,20.2-46,27.4-69.8c8.3-27.3,9.4-55,4.5-83
		c-9-51.4-36.7-94.2-80-129.7c-8.5-6.9-19.1-12.2-29.5-17c-11.7-5.5-24.4-5.4-37.2-1.7c-45.9,13.4-77.1,40.1-93.5,78.8
		c-16.7,39.4-18.5,79.5-2.3,119.8c8.9,22.3,18.8,44.2,37.1,62.3c3.1,3,6.4,5.9,9.5,9c0.5,0.5,0.6,1.3,0.9,2c-1.1,0.3-2.4,1-3.1,0.7
		c-14.7-5.7-30-10.6-44-17.5c-44.2-22-74.5-54.9-98.3-93.3c-24.6-39.6-22.3-79.5-2.1-118.8c25.6-49.7,68.7-85.1,126.9-106.5
		c1.2-0.4,2.4-0.8,3.5-1.3c6.9-2.8,6.6-3.1,3-9c-2.6-4.2-9.3-6.9-6.6-13.1c4,3.5,8.2,6.8,12,10.5c9.7,9.7,10,6.4,19.6,16.2
		c2.5,2.5,4.8,5,9.6,4c5.1-1.1,6.4-2.8,4.1-6.9c-4.6-7.9-0.2-2.4-4.7-10.3c-2.1-3.6-4-7.3-5.7-11.1c-0.8-1.9-0.9-4.1-1.4-6.1
		c2.2,1.4,4.7,2.6,6.4,4.4c2.5,2.5,4.4,5.4,6.4,8.2c6.4,8.7,12.7,17.4,19,26.1c3.6,5,9.2,6.7,14.9,3.9c1.6-0.8,2.9-3.5,2.8-5.3
		c-0.2-8.1-1.4-16.1-1.4-24.2c-0.1-7.7-3.4-15.7,1.7-23.2c2.1,7.3,4.4,14.6,6.2,22c2,8.3,2.6,8.6,4.2,17c0.6,3.4,2.4,5.4,6.6,5.3
		c4.3-0.1,5.9-2.3,6.4-5.6c1.9-12.7,4.7-17.5,6.6-30.2c0.3-1.8,0.1-3.7,0.7-5.5c0.8-2.3,2.2-6.5,3.1-6.5c4.6,0.2,3.7,4.1,4,6.7
		c0.4,4.5,3,5.9,8.1,6.6c17.5,2.3,33.4,8.5,48.6,16.2c45.1,23,81.3,54.6,113.7,89.3c28,30.1,45.5,65.4,60.2,101.6
		c21.3,52.7,31.6,107.4,37.4,162.7c0.9,8.8,1.8,17.6,4.1,26.2c1.2,4.4-0.5,6-4.2,7.7c-16.7,7.4-33.3,14.8-50,22.2
		c-1.9,0.8-4.8,1.3-5.5,2.6c-1.3,2.5-1.3,5.4-1.9,8.2c2.3-0.1,5,0.4,6.9-0.4c17.3-6.9,35.9-9,54.3-12.2c1-0.2,2.2,0.5,3.4,0.8
		c-0.7,0.8-1.3,1.9-2.2,2.2c-10.4,3.3-20.9,6.3-31.2,9.8c-5.5,1.8-10.8,4.2-16.1,6.3c-0.4,0.5-0.8,0.9-1.2,1.4c0.7,0,1.3-0.1,2-0.1
		c6.8-0.2,13.5-0.7,20.3-0.6c5.9,0,11.9,0.2,17.8,1c1.8,0.2,4.2,2.4,4.6,4.1c6.1,23.2,9.9,98.2,6.7,122.5c-1.1,8.3-1.8,16.6-2.5,25
		c-0.3,3.8-2.7,6-6.3,7.7c-8.7,3.9-17.2,8.1-26.1,11.8c-24.3,10.2-46.5,23.1-66.9,38.3c-11.6,8.7-23.3,17.2-34.9,25.9
		c-0.7,0.6-0.8,1.8-1.2,2.7c1.2,0.1,2.5,0.5,3.5,0.1c4.7-1.7,9.2-3.9,14.1-5.2c12.9-3.6,26-6.9,39.1-10.1c3.2-0.8,6.8-0.9,10.1-0.5
		c2.7,0.3,5.2,1.8,7.8,2.8c-2,1.7-3.7,4.1-6.1,5c-29.4,11.7-58.8,23.4-88.3,34.8c-6.8,2.6-13,9.1-13.2,15.7c0,0.7,2.1,2.1,3.1,2.1
		c2.1-0.1,4.1-0.9,6.1-1.6c24.4-8.5,49.3-6.2,74.3-2.7c1.1,0.2,2.1,0.9,3.2,1.4c-0.8,0.8-1.5,2-2.5,2.2c-8.3,1.7-16.5,3.9-24.9,4.6
		c-23.2,2-44.3,10.6-66.3,16.1c-2.6,0.6-5,3.9-6.1,6.3c-8,17-15.3,34.3-23.4,51.3c-11.3,23.8-23.1,47.4-34.7,71.1
		c-1.8,3.7-3.2,7.6-5.5,11.1c-1.8,2.8-4.4,5.3-7.1,7.5c-2,1.7-3.9,0.6-4.7-1.5c-0.5-1.4-0.8-2.9-1.1-4.3c-3.3-14.8-6-29.7-10-44.3
		c-2.9-10.4-0.3-19.4,4.9-28.6c12.4-21.8,24.3-43.7,36.6-65.5c2.1-3.6,2.6-6.5-0.5-10c-14.9-17-29.4-34.2-44.2-51.3
		c-4.9-5.6-10.3-10.8-15.4-16.2c-0.5-0.5-0.4-1.4-0.6-2.1c1.1,0,2.6-0.4,3.2,0c4.1,2.7,8.1,5.4,11.8,8.4
		c17.8,14.3,33.5,30.3,46.8,47.9c1.7,2.2,2.7,6.7,6.8,5.1c4.2-1.6,2.8-5.9,1.8-8.9c-1-3.1-3.1-6-4.9-8.9
		c-15.4-25-30.8-49.9-46.2-74.9c-1.8-2.9-3.6-5.9-4.7-9c-0.7-1.8-0.1-3.9,0-5.9c2.1,1.1,4.6,1.8,6.1,3.3c3.4,3.3,6.5,6.8,9.2,10.5
		c10.8,14.5,21.4,29.2,32.2,43.7c1.3,1.8,3.3,3.2,4.9,4.7c0.5-2.3,1.6-4.7,1.4-7c-1.1-8.7-2.8-17.4-4.1-26.2
		c-1.4-9.1-2.5-18.2-3.7-27.3c-0.2-1.8,0-3.7-0.4-5.5c-8.9-38.5-17.4-77.2-37.7-112.9c-1.7-3.1-5.9-5.8-3-10l-0.1-0.3
		c18,12.1,36.1,24.2,54.1,36.4c3.9,2.7,7.4,6,11.1,8.9c1.6-3.4-0.9-5.4-3.5-7.5c-6.6-5.2-13.2-10.4-19.8-15.6
		c-22.1-17.2-21.6-22.2-43.7-39.4c-1.9-1.5-4.3-2.8-5.3-4.6c-1.2-2.1-2.5-5.4-1.4-6.9c2.4-3.4,4.9-0.1,7.3,1.1
		c11.5,6.7,11,8.9,26.5,21C643.7,571.5,663,587,682.5,602.4L682.5,602.4z M755.4,616.5c18.4-50.2,31.7-101.4,40.8-153.4
		c8.3-47.7,8.3-95.1-4.9-142.2C776,266.3,749.2,217,703.7,176.1c-21.8-19.6-46.4-35.6-75.4-46.4c-20.8-7.8-42.4-10.3-65-8.8
		c-27.9,1.8-54.8,6.9-79.4,18.8c-24.7,12-46.5,27.3-66.6,44.4c-14.1,12-25.9,25.7-32.4,41.8c-8.8,22.1-12.2,45-9.6,68.4
		c0.7,6.1,3.3,12.1,5.3,18.1c0.3,0.8,1.6,1.4,2.5,2.1c0.4-0.9,1.2-1.9,1.1-2.8c-0.2-3.3-0.7-6.6-0.9-9.9c-2.4-34.2,3.8-67,26.9-95.6
		C449,158,503.9,135,571,132.7c42.3-1.4,76.8,15,107.3,38c14.6,11,27.5,24.1,36.8,39.3c6.2,10,12.9,19.8,18.9,30
		c19.1,32.6,33.8,66.6,41.6,102.6c13.1,60.1,8.5,120-4.6,179.5c-5.1,23.4-13.6,46.2-20.4,69.4c-14.3,48.5-32.8,95.9-55,142.1
		c-25.1,52.3-10.2,45.2,0.2,24.7c16-31.3,32-62.5,43.2-95.4C744.3,647.4,750,632,755.4,616.5z"/>
	<circle class="st0" cx="619.7" cy="1073.4" r="49.4"/>
</g>
</svg>
