<?xml version="1.0" encoding="UTF-8"?>
<svg xmlns="http://www.w3.org/2000/svg" viewBox="0 0 300 400" fill="#fff">
  <path class="cls-1" d="m85.94,168.93c4.28,1.2,33.81-16.48,35.36-24.56s-47.45-62.45-25.69-73.33c21.75-10.88,127.39,24.25,119.29,67.72-8.1,43.47-64.9,27.76-92.7,78.51-23.33,42.61,2.39,84.29,6.36,85.65s26.91-5.02,29.34-10.29-27.23-43.94,12.65-69.31c29.16-18.56,109.98-37.46,74.93-103.93C210.42,52.91,93.19-11.14,56.93,33.57c-36.26,44.72,24.72,134.15,29,135.35Z" />
  <path class="cls-1" d="m146.36,323.62c15.71-4.83,25.92-4.83,30.21,4.83s13.29,39.88-10.31,50.87c-19.44,9.05-30.78-6.16-33.2-26.7s1.23-25.29,13.29-29Z" />
</svg>